<?xml version="1.0" encoding="UTF-8" standalone="no"?>
<svg
   xmlns:dc="http://purl.org/dc/elements/1.1/"
   xmlns:cc="http://creativecommons.org/ns#"
   xmlns:rdf="http://www.w3.org/1999/02/22-rdf-syntax-ns#"
   xmlns:svg="http://www.w3.org/2000/svg"
   xmlns="http://www.w3.org/2000/svg"
   xmlns:sodipodi="http://sodipodi.sourceforge.net/DTD/sodipodi-0.dtd"
   xmlns:inkscape="http://www.inkscape.org/namespaces/inkscape"
   version="1.1"
   id="svg2"
   width="277.58063"
   height="305.1619"
   viewBox="0 0 277.58063 305.16189"
   sodipodi:docname="Cameo Logo.svg"
   inkscape:version="1.0 (4035a4fb49, 2020-05-01)">
  <metadata
     id="metadata8">
    <rdf:RDF>
      <cc:Work
         rdf:about="">
        <dc:format>image/svg+xml</dc:format>
        <dc:type
           rdf:resource="http://purl.org/dc/dcmitype/StillImage" />
        <dc:title></dc:title>
      </cc:Work>
    </rdf:RDF>
  </metadata>
  <defs
     id="defs6" />
  <sodipodi:namedview
     fit-margin-bottom="0"
     fit-margin-right="0"
     fit-margin-left="0"
     fit-margin-top="0"
     inkscape:document-rotation="0"
     pagecolor="#ffffff"
     bordercolor="#666666"
     borderopacity="1"
     objecttolerance="10"
     gridtolerance="10"
     guidetolerance="10"
     inkscape:pageopacity="0"
     inkscape:pageshadow="2"
     inkscape:window-width="1920"
     inkscape:window-height="1017"
     id="namedview4"
     showgrid="false"
     inkscape:zoom="0.35932411"
     inkscape:cx="206.63079"
     inkscape:cy="-255.45127"
     inkscape:window-x="-8"
     inkscape:window-y="-8"
     inkscape:window-maximized="1"
     inkscape:current-layer="g837" />
  <g
     transform="translate(-0.04276672,-0.13333319)"
     inkscape:groupmode="layer"
     inkscape:label="Image"
     id="g10">
    <g
       id="g837">
      <path
         style="fill:#d437fd;stroke-width:0.266667"
         d="m 63.560168,277.0887 c -0.75524,-0.27755 -2.07524,-0.94755 -2.933333,-1.48891 -1.906854,-1.20296 -28.358438,-27.46693 -30.115723,-29.9021 -2.333216,-3.23328 -3.081848,-5.96449 -2.382803,-8.69313 0.561579,-2.19206 1.644008,-3.81472 4.032862,-6.04565 2.142189,-2.00057 2.214554,-2.04863 27.732928,-18.41991 28.527941,-18.30206 32.650602,-20.75115 36.633904,-21.76252 2.286058,-0.58043 5.076547,-0.40813 6.833267,0.42192 1.81715,0.85861 9.91164,8.94919 10.76878,10.76358 0.7571,1.60261 0.99306,4.38723 0.53739,6.34171 -0.97486,4.18141 -2.91484,7.46586 -21.241795,35.96298 -5.423613,8.43334 -10.982162,17.13334 -12.352338,19.33334 -5.378163,8.63536 -7.85695,11.6352 -10.806843,13.07845 -1.990848,0.97403 -4.718256,1.14088 -6.706296,0.41024 z M 203.01974,114.43896 c -1.89141,-0.65361 -3.76362,-2.1651 -7.64865,-6.17501 -2.18425,-2.25446 -3.54363,-3.89739 -4.00361,-4.8387 -0.84705,-1.73343 -1.13918,-4.164037 -0.72987,-6.072595 0.92281,-4.302893 2.75885,-7.440581 20.68693,-35.352654 6.02911,-9.386667 12.33754,-19.265677 14.01873,-21.953357 1.6812,-2.687681 3.80751,-5.828091 4.72512,-6.978694 5.11379,-6.412197 10.32296,-7.019166 16.59828,-1.934024 1.1,0.891373 7.70887,7.360894 14.68637,14.37671 12.98779,13.059109 14.44611,14.72432 15.60251,17.816336 0.77789,2.079893 0.67597,4.724824 -0.25544,6.62856 -1.56558,3.19992 -4.47611,5.704907 -12.61162,10.854352 -2.61534,1.6554 -11.46857,7.325833 -19.67385,12.600961 -22.21858,14.284195 -28.88425,18.401575 -32.29195,19.946695 -3.44621,1.56259 -6.61958,1.93958 -9.10295,1.08142 z"
         id="path849" />
      <path
         style="fill:#01f0e5;stroke-width:0.266667"
         d="m 132.94593,305.03699 c -5.68866,-0.82893 -8.86431,-3.73234 -9.48784,-8.67445 -0.37217,-2.94984 0.14453,-6.46547 2.54203,-17.29587 1.23376,-5.57333 3.21422,-14.63333 4.40103,-20.13333 7.65213,-35.46204 8.6748,-38.96465 12.34508,-42.28161 2.25462,-2.03758 3.24572,-2.25173 10.42139,-2.25173 4.54383,0 6.54615,0.0999 7.44885,0.37155 1.77354,0.53376 3.72669,2.07641 4.95186,3.91112 2.46956,3.6982 3.41904,7.35913 11.09624,42.784 1.84355,8.50667 3.88067,17.74667 4.52694,20.53334 0.64627,2.78666 1.36651,6.08666 1.60052,7.33333 0.50578,2.6944 0.57801,7.16867 0.14238,8.81992 -0.68686,2.60352 -2.40556,4.58997 -4.99834,5.77699 -2.884,1.32034 -4.06948,1.38629 -24.4694,1.36128 -10.41334,-0.0128 -19.64767,-0.12731 -20.52074,-0.25454 z M 97.6,114.76464 C 93.327331,113.94988 89.743885,111.85885 61.866667,93.913309 54.46,89.145381 45.64,83.512642 42.266667,81.396111 32.794835,75.453204 30.137229,73.258772 28.539421,70.061276 c -1.482922,-2.967592 -1.020792,-6.468013 1.31155,-9.934384 1.109082,-1.648339 27.021917,-27.71015 29.215696,-29.383659 4.771237,-3.63971 8.934373,-3.937454 12.911064,-0.923384 2.28781,1.73401 4.623621,4.667752 8.145077,10.230083 1.607544,2.539205 7.317128,11.456736 12.687965,19.816736 18.394207,28.631579 20.292997,31.805518 21.598237,36.102742 0.7885,2.595971 0.65649,5.42718 -0.34336,7.36393 -1.00746,1.95151 -9.22947,10.04473 -11.00041,10.8281 -1.30097,0.57548 -4.030661,0.87676 -5.46524,0.6032 z"
         id="path847" />
      <path
         style="fill:#f8005b;stroke-width:0.266667"
         d="m 235.27474,276.52859 c -3.3082,-1.65312 -5.52903,-4.25912 -11.01779,-12.92858 -1.94999,-3.08 -7.84101,-12.28012 -13.09115,-20.44472 -10.1912,-15.84853 -14.69402,-23.00804 -17.16256,-27.28862 -3.73649,-6.47925 -4.47365,-10.59198 -2.54654,-14.2076 1.1375,-2.13416 8.5784,-9.52628 10.5433,-10.47417 1.92895,-0.93055 4.82833,-1.03073 7.38203,-0.25507 4.11544,1.25003 7.12281,3.05398 35.5513,21.32523 8.36,5.37304 17.28448,11.07216 19.83218,12.6647 2.54769,1.59255 5.54769,3.57507 6.66668,4.40561 6.78333,5.03481 7.95834,10.142 3.6936,16.05392 -1.51854,2.10505 -28.10832,28.62309 -29.91935,29.83861 -3.47159,2.33008 -6.96825,2.79155 -9.9317,1.31069 z M 7.1811597,182.30204 c -4.0119069,-1.08173 -6.19212802,-4.11373 -6.92849663,-9.63537 -0.18758491,-1.4066 -0.25044193,-8.67393 -0.18451741,-21.33333 0.11050585,-21.2203 0.0574641,-20.54066 1.86940904,-23.95333 1.3829104,-2.60462 3.5441941,-3.98348 6.9965154,-4.46365 2.5462669,-0.35415 5.8058249,-0.007 11.3325969,1.2059 2.273333,0.49902 12.713333,2.77843 23.2,5.06535 21.629736,4.71697 31.987186,7.06992 35.38884,8.03944 6.644989,1.89392 9.828733,3.93364 11.382984,7.29274 0.525386,1.13548 0.561509,1.65958 0.561509,8.14688 V 159.6 l -0.736579,1.49988 c -1.39861,2.84796 -4.512736,5.0204 -9.270037,6.46684 -4.266152,1.29711 -12.279421,3.13454 -36.793384,8.43667 -7.553333,1.63371 -16.793333,3.67009 -20.533333,4.52528 -3.74,0.85519 -7.662987,1.68609 -8.717748,1.84645 -2.483764,0.3776 -6.0230267,0.34343 -7.5677593,-0.0731 z M 145.55845,90.570199 c -3.7861,-1.385485 -5.82381,-4.011669 -7.65205,-9.861925 -1.0649,-3.407614 -3.71241,-14.890619 -7.91006,-34.308273 -1.8548,-8.58 -4.13446,-18.96 -5.06592,-23.066667 -1.86484,-8.221864 -2.37385,-11.632717 -2.10418,-14.0998567 0.50596,-4.6287777 2.82693,-7.2618572 7.5928,-8.61383505 1.59099,-0.45133057 3.172,-0.48630891 21.98096,-0.48630891 22.00927,0 21.9361,-0.004358 25.1115,1.49593086 2.03578,0.9618505 3.86249,2.9129754 4.53637,4.8453389 0.38469,1.1030936 0.48164,2.1670443 0.46706,5.1253969 -0.0162,3.2832 -0.13456,4.247772 -0.98172,8 -0.52981,2.346667 -2.82347,12.786667 -5.097,23.200001 -7.83411,35.882115 -8.45622,38.387417 -10.52077,42.368377 -1.15398,2.225149 -2.92312,4.091544 -4.71544,4.974661 -1.29652,0.638824 -1.51741,0.658715 -8,0.720438 -5.03503,0.04794 -6.90527,-0.02384 -7.64155,-0.293278 z"
         id="path843" />
    </g>
  </g>
</svg>
